<?xml version="1.0" encoding="iso-8859-1"?>
<!-- Generator: Adobe Illustrator 18.0.0, SVG Export Plug-In . SVG Version: 6.00 Build 0)  -->
<!DOCTYPE svg PUBLIC "-//W3C//DTD SVG 1.1//EN" "http://www.w3.org/Graphics/SVG/1.1/DTD/svg11.dtd">
<svg version="1.1" id="Capa_1" xmlns="http://www.w3.org/2000/svg" xmlns:xlink="http://www.w3.org/1999/xlink" x="0px" y="0px"
	 viewBox="0 0 455 455" style="fill:white; enable-background:new 0 0 455 455;" xml:space="preserve">
<path d="M389.082,447.397l-24-58c-0.721-1.743-2.285-2.995-4.144-3.316l-6.386-1.105l-17.447-43.522
	c-0.819-2.044-2.779-3.403-4.981-3.452l-38.841-0.877l-7.282-15.913c-1.04-2.271-3.477-3.559-5.941-3.13l-10.68,1.854V140h24.29
	c1.944,0,3.526,1.582,3.526,3.527s-1.582,3.527-3.526,3.527h-8.124c-3.037,0-5.5,2.462-5.5,5.5s2.463,5.5,5.5,5.5h8.124
	c8.01,0,14.526-6.517,14.526-14.527S301.68,129,293.67,129h-37.77V58h2.799c7.72,0,14-6.28,14-14s-6.28-14-14-14h-4.65
	c1.494-2.843,2.351-6.071,2.351-9.5c0-11.304-9.196-20.5-20.5-20.5s-20.5,9.196-20.5,20.5c0,3.429,0.856,6.657,2.351,9.5h-4.649
	c-7.72,0-14,6.28-14,14s6.28,14,14,14h2.798v71h-37.77c-8.01,0-14.526,6.517-14.526,14.527s6.517,14.527,14.526,14.527h8.124
	c3.037,0,5.5-2.462,5.5-5.5s-2.463-5.5-5.5-5.5h-8.124c-1.944,0-3.526-1.582-3.526-3.527S176.186,140,178.13,140h24.29v191.556
	l-43.36,7.525c-2.12,0.368-3.831,1.938-4.379,4.019l-9.526,36.2l-43.531,33.858c-1.06,0.824-1.781,2.008-2.029,3.328l-1.275,6.801
	l-24.921,2.746c-2.447,0.27-4.418,2.134-4.822,4.563l-3,18c-0.267,1.595,0.184,3.226,1.229,4.459C67.849,454.289,69.383,455,71,455
	h313c1.837,0,3.552-0.917,4.572-2.444S389.784,449.094,389.082,447.397z M328.246,348.917l13.571,33.854l-30.022-5.196
	l-13.424-29.333L328.246,348.917z M241.399,324.791v-63.317l16.98,9.103v51.267L241.399,324.791z M213.42,212.858l16.979-9.102
	v20.433l-16.979,9.102V212.858z M258.38,258.096l-16.98-9.103v-19.98l16.98,9.103V258.096z M213.42,245.772l16.979-9.102v48.974
	l-16.979,9.102V245.772z M258.38,225.634l-16.98-9.103V140h16.98V225.634z M226.899,79h18v9h-18V79z M226.899,99h18v9h-18V99z
	 M226.399,20.5c0-5.238,4.262-9.5,9.5-9.5s9.5,4.262,9.5,9.5s-4.262,9.5-9.5,9.5S226.399,25.738,226.399,20.5z M210.102,44
	c0-1.654,1.346-3,3-3h45.597c1.654,0,3,1.346,3,3s-1.346,3-3,3h-45.597C211.447,47,210.102,45.654,210.102,44z M244.899,58v10h-18
	V58H244.899z M226.899,119h18v10h-18V119z M230.399,140v51.274l-16.979,9.102V140H230.399z M213.42,307.227l16.979-9.102V326.7
	l-16.979,2.947V307.227z M164.42,349.315l113.343-19.671l22.985,50.225l-58.962,28.161l-36.297-29.782
	C204.505,377.441,203.273,377,202,377h-44.865L164.42,349.315z M78.74,436.511l17.459-1.924L94.435,444H77.492L78.74,436.511z
	 M110.022,420.562L151.888,388h48.145l36.089,29.611L242.907,444h-137.28L110.022,420.562z M254.265,444l-6.811-26.488
	l61.334-29.294l47.288,8.185L375.772,444H254.265z"/>
<g>
</g>
<g>
</g>
<g>
</g>
<g>
</g>
<g>
</g>
<g>
</g>
<g>
</g>
<g>
</g>
<g>
</g>
<g>
</g>
<g>
</g>
<g>
</g>
<g>
</g>
<g>
</g>
<g>
</g>
</svg>
